<svg xmlns="http://www.w3.org/2000/svg" id="overseas_jobs_svg__Layer_1" x="0" y="0" viewBox="0 0 800 800" xmlspace="preserve" class="svg-wrapper--8ky9e"><style>.overseas_jobs_svg__st1{fill:#0274b9}.overseas_jobs_svg__st2{fill:#29a9e1}.overseas_jobs_svg__st5{opacity:.3}.overseas_jobs_svg__st11{fill:#3297d2}</style><path d="M426.95 409.58l1.38 2.79-1.38-2.79z" fill="#2c475c"></path><path class="overseas_jobs_svg__st1" d="M406.67 155.4h-167.3c-18.19 0-32.94 14.75-32.94 32.94v51.77h50.28V217.4c0-10.35 8.39-18.73 18.73-18.73h95.15c10.35 0 18.73 8.39 18.73 18.73v22.71h50.28v-51.77c.01-18.2-14.74-32.94-32.93-32.94zM631.45 631.36V406.35H14.59v225.01c0 23.8 19.3 43.1 43.1 43.1h530.66c23.8-.01 43.1-19.3 43.1-43.1z"></path><path class="overseas_jobs_svg__st2" d="M595.07 240.11H50.97c-23.8 0-43.1 19.3-43.1 43.1v205.67c0 2.98 1.77 5.66 4.52 6.8 20.03 8.36 108.88 39.84 310.63 39.84 180.76 0 286.69-32.13 310.16-40.09a7.354 7.354 0 0 0 4.99-6.98V283.2c0-23.8-19.3-43.09-43.1-43.09z"></path><defs><path id="overseas_jobs_svg__SVGID_1_" d="M638.17 283.2c0-23.8-19.3-43.1-43.1-43.1H50.97c-23.8 0-43.1 19.3-43.1 43.1v205.67c0 2.98 1.77 5.66 4.52 6.8.66.27 1.39.57 2.2.9v134.79c0 23.8 19.3 43.1 43.1 43.1h530.66c23.8 0 43.1-19.3 43.1-43.1V496c.62-.21 1.2-.4 1.74-.58 2.99-1.01 4.98-3.82 4.98-6.98V283.2z"></path></defs><clipPath id="overseas_jobs_svg__SVGID_00000023277326240138290640000010274752138121866634_"><use xmlns:ns1="http://www.w3.org/1999/xlink" ns1:href="#overseas_jobs_svg__SVGID_1_" overflow="visible"></use></clipPath><g clip-path="url(#overseas_jobs_svg__SVGID_00000023277326240138290640000010274752138121866634_)"><path d="M366.59 548.64c0 7.69-6.04 14.01-13.72 14.35-7.74.34-18.19.67-29.85.67-12.32 0-22.45-.3-29.83-.62-7.69-.34-13.74-6.66-13.74-14.35v-14.71h87.13v14.66z" fill="#e5e5e4"></path><path d="M601.52 264.11l-543.76-19.1c-23.79-.84-43.75 17.77-44.58 41.56L5.79 496.9s81 44.73 313.48 52.89c206.18 7.24 316.42-30.77 316.42-30.77l7.39-210.32c.84-23.79-17.77-43.75-41.56-44.59z"></path></g><path class="overseas_jobs_svg__st2" d="M595.07 240.11H50.97c-23.8 0-43.1 19.3-43.1 43.1v205.67c0 2.98 1.77 5.66 4.52 6.8 20.03 8.36 108.88 39.84 310.63 39.84 180.76 0 286.69-32.13 310.16-40.09a7.354 7.354 0 0 0 4.99-6.98V283.2c0-23.8-19.3-43.09-43.1-43.09z"></path><path d="M380.22 534.85s-25.12 1.44-57.2 1.44c-35.55 0-57.2-1.44-57.2-1.44V480.8c0-7.93 6.43-14.37 14.37-14.37h85.66c7.93 0 14.37 6.43 14.37 14.37v54.05z" fill="#faaf3a"></path><g><defs><path id="overseas_jobs_svg__SVGID_00000140004775251507851580000005213193314838268858_" d="M631.45 631.36V406.35H14.59v225.01c0 23.8 19.3 43.1 43.1 43.1h530.66c23.8-.01 43.1-19.3 43.1-43.1z"></path></defs><clipPath id="overseas_jobs_svg__SVGID_00000156551722387637051410000016054887416033560452_"><use xmlns:ns2="http://www.w3.org/1999/xlink" ns2:href="#overseas_jobs_svg__SVGID_00000140004775251507851580000005213193314838268858_" overflow="visible"></use></clipPath></g><g class="overseas_jobs_svg__st5"><ellipse cx="585.17" cy="350.49" rx="181.85" ry="186.45"></ellipse></g><g><defs><circle id="overseas_jobs_svg__SVGID_00000105401675736027217870000007797592607529973931_" cx="600.92" cy="340.54" r="191.2"></circle></defs><clipPath id="overseas_jobs_svg__SVGID_00000000925762093456275830000004791650851107868297_"><use xmlns:ns3="http://www.w3.org/1999/xlink" ns3:href="#overseas_jobs_svg__SVGID_00000105401675736027217870000007797592607529973931_" overflow="visible"></use></clipPath><radialGradient id="overseas_jobs_svg__SVGID_00000024000228473090273290000000461159584281440945_" cx="553.918" cy="280.636" r="183.977" gradientUnits="userSpaceOnUse"><stop offset="0" stop-color="#89cdef"></stop><stop offset="1" stop-color="#3297d2"></stop></radialGradient><circle cx="600.92" cy="340.54" r="183.98" clip-path="url(#overseas_jobs_svg__SVGID_00000000925762093456275830000004791650851107868297_)" fill="url(#overseas_jobs_svg__SVGID_00000024000228473090273290000000461159584281440945_)"></circle><g clip-path="url(#overseas_jobs_svg__SVGID_00000000925762093456275830000004791650851107868297_)"><path d="M807.75 341.78c0 67.45-.02 134.9.08 202.35 0 2.73-.5 3.31-3.28 3.31-135.17-.09-270.34-.09-405.51.02-3.14 0-3.39-.94-3.39-3.6.07-135.04.07-270.07-.02-405.11 0-2.86.54-3.52 3.48-3.51 135.04.09 270.07.1 405.11-.01 3.21 0 3.6.94 3.6 3.8-.09 67.58-.07 135.17-.07 202.75zm-399.17-.6c-.02 106.49 86.28 193.36 192.34 193.29 53.36-.04 99.64-18.71 137.16-56.51 45.1-45.44 62.54-100.72 54.64-164.24-10.3-82.88-84.62-165.15-190.76-165.45-106.52-.31-193.21 85.61-193.38 192.91z" fill="#fff"></path><path d="M408.58 341.18c.17-107.3 86.86-193.22 193.38-192.92 106.13.3 180.46 82.57 190.76 165.45 7.89 63.52-9.55 118.8-54.64 164.24-37.52 37.8-83.8 56.48-137.16 56.51-106.06.08-192.36-86.79-192.34-193.28zm86.17 144.18c-.02.19-.04.38-.07.57.17-.04.34-.07.5-.11-.17-.14-.33-.28-.5-.42-2.29-2.95-4.56-5.92-6.87-8.86-8.05-10.23-16.08-20.52-17.77-34.02-1.43-11.43-6.09-20.96-14.39-29.14-6.47-6.38-9.86-14.56-11.84-23.65-2.92-13.41-7.05-26.55-10.27-39.92-1.77-7.35-5.84-13.74-11.12-19.59-1.16 2-.9 3.67-.93 5.22-.38 25.03 3.33 49.34 12.84 72.63 10.31 25.25 25.15 47.39 45.4 65.74 4.69 4.24 9.01 9.02 15.02 11.55zm119.53-323.21c4.15 4.65 8.5 8.83 11.23 14.35 1.83 3.7 2.01 7.08.06 11-4.18 8.36-10.69 13.58-19.35 16.72-6.77 2.45-13.97 2.91-20.78 4.94-11.19 3.33-22.17 7.32-34.03 7.88-2.86.14-4.12-.75-4.37-3.24-.24-2.39-.08-4.82-.15-7.23-.19-6.17 1.7-12.11 1.86-18.28.1-3.83-1.76-5.15-4.76-5.38-7.51-.58-14.85.28-21.81 3.43-1.88.85-2.73 2.18-3.31 4.12-2.11 7.06.39 13.05 3.84 18.96 1.11 1.91 2.87 3.58 2.52 6.16-.86 6.5-1.54 13.03-2.49 19.52-.66 4.54-2.78 8.31-6.66 11.01-7.08 4.93-14.65 8.99-22.96 11.23-4.97 1.34-8.67 3.96-11.72 7.87-2.97 3.8-5.46 8.02-9.21 11.13-8.07 6.7-15.06 14.44-21.51 22.62-11.32 14.35-8.72 33.49 10.5 40.36 10.81 3.86 20.59 9.54 30.31 15.46 5.91 3.6 10.75 8.27 14.92 13.83 4.82 6.42 9.99 12.55 17.85 15.71 4.37 1.76 8.51 4.11 12.71 6.28 2.71 1.41 5.84 2.83 7.11 5.55 2.77 5.92 5.34 12.09 5.21 18.8-.37 18.71-10.36 31.79-25.05 42.01-4.81 3.35-9.82 6.43-13.79 10.86-3.29 3.67-5.19 7.79-4.4 12.78.69 4.34 1.56 8.66 2.42 12.98.32 1.6 1.13 2.82 2.65 3.77 13.08 8.22 27.44 13.41 42.12 17.77 12.13 3.61 24.65 4.98 37.24 5.99 22.3 1.78 44.15-.99 65.24-7.74 32.46-10.38 60.16-28.48 82.46-54.5 27.39-31.95 41.54-69.1 43.71-110.99.51-9.79-.64-19.46-1.43-29.17-.23-2.85-4.23-8.46-6.76-8.43-3.86.05-2.95 4.04-4.31 6.18-.14.22-.17.5-.23.76-1.36 6.48-3.6 12-11 14.07-4.01 1.12-4.58 5.21-1.93 8.57 1.4 1.78 2.84 3.54 4.27 5.3 5.49 6.8 5.54 11.26-.32 17.68-10.14 11.11-17.52 23.45-19.45 38.76-.72 5.74-2.31 11.38-5.02 16.75-3.42 6.77-7.08 13.47-8.08 21.33-.65 5.06-1.67 10.42-4.9 14.69-8.53 11.25-19.32 19.63-32.79 24.11-7.98 2.65-11.66.67-14.93-7.07-.57-1.35-1.12-2.71-1.58-4.1-2.39-7.09-3.4-14.65-7.23-21.26-3.15-5.43-4.01-11.17-2.7-17.38.74-3.5.91-7.15 1.02-10.74.38-11.81-3.96-22.7-7.68-33.5-3.23-9.38-11.58-12.49-21.29-9.8-2.85.79-5.69 1.64-8.67 1.11-23.47-4.2-34.64-22.48-35.25-45.46-.15-5.85.91-11.73 1.44-17.6.44-4.85 1.59-9.49 4.05-13.75 4.8-8.33 10.89-15.67 17.3-22.78 2.83-3.13 6.46-4.79 10.44-5.41 7.82-1.22 15.36-3.39 22.98-5.44 12.09-3.25 18.19-3.49 27.53 9.01 1.6 2.14 3.21 4.36 5.19 6.11 4.19 3.72 8.74 6.05 14.44 2.72 3.58-2.09 7.31-1.83 11.05.01 2.86 1.41 5.89 2.49 8.86 3.67 2.4.96 4.89 1.26 7.45.73 3.87-.8 6.73-4.81 6.56-9.36-.15-4.12-2.71-5.64-6.48-6.26-2.75-.45-5.73-.07-8.22-1.6-3.1-1.91-6.43-2.63-9.98-2.18-4.33.55-7.15-1.52-9.25-4.99-2.28-3.77-4.66-7.5-6.82-11.34-1.94-3.45-4.87-4.81-8.66-4.63-1.29.06-3.05-.31-3.61 1.09-.65 1.62.95 2.72 2.04 3.56 2.75 2.12 5.71 3.96 8.51 6.02 1.47 1.08 3.35 2.19 2.44 4.49-.88 2.22-2.59 3.73-5 4.2-1.53.3-2.66-.66-2.14-2 1.61-4.2-1.37-5.56-4.06-7.02-5.87-3.18-11.86-6.11-17.41-9.9-3.73-2.55-7.91-1.91-11.47 1.06-3.01 2.51-5.79 5.33-7.71 8.68-4.45 7.75-10.5 9.11-20.12 6.19-3.18-.96-5.87-2.37-7.29-5.7-4.47-10.54 1.83-23.27 12.87-26.09 3.6-.92 7.2-.55 10.8-.57 3.38-.01 6.32-.71 8.68-3.33 1.25-1.38 2.61-2.82 4.21-3.7 4.21-2.31 4.46-5.26 2.63-9.38-3.14-7.12-1.4-11.16 5.82-13.84 4.77-1.77 9.5-3.52 14.03-5.87 2.68-1.39 5.55-1.56 8.5-.33 9.57 4 19.42 7.28 28.37 12.79 4.37 2.69 9.55 3.78 15.93 2.95-32.12-29.29-68.7-45.64-111.25-48.34z" fill="#a6d0de"></path><path class="overseas_jobs_svg__st11" d="M494.75 485.36c-6-2.53-10.33-7.32-14.99-11.54-20.26-18.34-35.09-40.49-45.4-65.74-9.51-23.29-13.22-47.6-12.84-72.63.02-1.55-.23-3.22.93-5.22 5.28 5.85 9.35 12.24 11.12 19.59 3.22 13.37 7.35 26.51 10.27 39.92 1.98 9.09 5.36 17.27 11.84 23.65 8.3 8.17 12.96 17.7 14.39 29.14 1.69 13.49 9.72 23.78 17.77 34.02 2.31 2.94 4.58 5.91 6.87 8.86l.04-.05z"></path><path class="overseas_jobs_svg__st11" d="M494.68 485.4c.17.14.33.28.5.42-.17.04-.34.07-.5.11.02-.19.04-.38.07-.57l-.07.04z"></path></g></g></svg>