<svg xmlns="http://www.w3.org/2000/svg" id="jobs_svg__Layer_1" x="0" y="0" viewBox="0 0 800 800" xmlspace="preserve" class="svg-wrapper--8ky9e"><style>.jobs_svg__st0{fill:#0074ba}.jobs_svg__st1{fill:#29abe2}</style><path class="jobs_svg__st0" d="M503.33 79.41H296.67c-22.47 0-40.69 18.22-40.69 40.69v63.95h62.1V156c0-12.78 10.36-23.14 23.14-23.14h117.54c12.78 0 23.14 10.36 23.14 23.14v28.05H544V120.1c.02-22.47-18.2-40.69-40.67-40.69zM781 667.35V389.41H19v277.95c0 29.4 23.84 53.24 53.24 53.24h655.52c29.4-.01 53.24-23.85 53.24-53.25z"></path><path class="jobs_svg__st1" d="M736.06 184.05H63.94c-29.4 0-53.24 23.84-53.24 53.24v254.06c0 3.68 2.19 6.99 5.58 8.4 24.74 10.32 134.5 49.22 383.71 49.22 223.29 0 354.15-39.69 383.14-49.53a9.088 9.088 0 0 0 6.16-8.62V237.29c0-29.41-23.83-53.24-53.23-53.24z"></path><defs><path id="jobs_svg__SVGID_1_" d="M789.29 237.29c0-29.4-23.84-53.24-53.24-53.24H63.94c-29.4 0-53.24 23.84-53.24 53.24v254.06c0 3.68 2.19 6.99 5.58 8.4.81.34 1.72.71 2.71 1.11v166.5c0 29.4 23.84 53.24 53.24 53.24h655.52c29.4 0 53.24-23.84 53.24-53.24v-167.2c.77-.25 1.48-.49 2.14-.72 3.69-1.25 6.15-4.72 6.15-8.62V237.29z"></path></defs><clipPath id="jobs_svg__SVGID_00000127016346425566538300000015101772243234663065_"><use xmlns:ns1="http://www.w3.org/1999/xlink" ns1:href="#jobs_svg__SVGID_1_" overflow="visible"></use></clipPath><g clip-path="url(#jobs_svg__SVGID_00000127016346425566538300000015101772243234663065_)"><path d="M453.81 565.17c0 9.49-7.46 17.31-16.94 17.73-9.56.42-22.47.83-36.87.83-15.22 0-27.73-.37-36.85-.77-9.49-.42-16.97-8.23-16.97-17.73v-18.17h107.63v18.11z" fill="#e6e6e6"></path><path d="M744.03 213.7l-671.7-23.59c-29.38-1.03-54.04 21.95-55.07 51.34L8.13 501.26s100.06 55.25 387.24 65.34c254.69 8.94 390.87-38.01 390.87-38.01l9.12-259.81c1.04-29.39-21.95-54.05-51.33-55.08z" opacity="0.3"></path></g><path class="jobs_svg__st1" d="M736.06 184.05H63.94c-29.4 0-53.24 23.84-53.24 53.24v254.06c0 3.68 2.19 6.99 5.58 8.4 24.74 10.32 134.5 49.22 383.71 49.22 223.29 0 354.15-39.69 383.14-49.53a9.088 9.088 0 0 0 6.16-8.62V237.29c0-29.41-23.83-53.24-53.23-53.24z"></path><path d="M470.65 548.15s-31.03 1.77-70.65 1.77c-43.91 0-70.65-1.77-70.65-1.77v-66.77c0-9.8 7.95-17.75 17.75-17.75h105.81c9.8 0 17.75 7.95 17.75 17.75v66.77z" fill="#fbb03b"></path><g><defs><path id="jobs_svg__SVGID_00000058559078645959064070000001155412387784001713_" d="M781 667.35V389.41H19v277.95c0 29.4 23.84 53.24 53.24 53.24h655.52c29.4-.01 53.24-23.85 53.24-53.25z"></path></defs><clipPath id="jobs_svg__SVGID_00000116935763845416600920000003039105136214099126_"><use xmlns:ns2="http://www.w3.org/1999/xlink" ns2:href="#jobs_svg__SVGID_00000058559078645959064070000001155412387784001713_" overflow="visible"></use></clipPath></g></svg>